<?xml version="1.0" standalone="no"?>
<!DOCTYPE svg PUBLIC "-//W3C//DTD SVG 20010904//EN"
 "http://www.w3.org/TR/2001/REC-SVG-20010904/DTD/svg10.dtd">
<svg version="1.0" xmlns="http://www.w3.org/2000/svg"
 width="1080.000000pt" height="1080.000000pt" viewBox="0 0 1080.000000 1080.000000"
 preserveAspectRatio="xMidYMid meet">

<g transform="translate(0.000000,1080.000000) scale(0.100000,-0.100000)"
fill="#000000" stroke="none">
<path d="M4071 8475 c-23 -55 -10 -160 33 -255 21 -47 41 -107 46 -135 7 -48
8 -48 9 -12 1 25 -16 81 -45 154 -25 64 -44 127 -42 142 3 23 7 19 34 -34 74
-143 84 -196 57 -330 -9 -43 -39 -60 -55 -31 -27 49 -108 -28 -108 -103 0 -23
-13 -45 -49 -85 -82 -90 -81 -156 3 -241 112 -116 214 -95 433 89 133 112 217
157 311 166 l67 6 -43 8 c-101 19 -218 -22 -426 -148 -169 -102 -244 -124
-321 -92 -18 8 -41 26 -50 40 -28 42 -11 82 70 166 39 41 75 83 78 93 11 29
-2 39 -26 22 -12 -8 -25 -15 -29 -15 -15 0 15 48 38 61 21 11 27 10 49 -11 14
-13 28 -20 32 -16 4 3 13 -4 20 -16 12 -22 12 -22 13 -2 0 14 18 33 54 57 30
20 62 50 72 66 14 23 23 29 40 25 17 -4 28 3 50 31 36 48 37 111 1 180 l-24
49 -6 -29 c-4 -17 -3 -46 2 -65 l9 -35 2 30 2 30 13 -30 c20 -42 18 -68 -6
-99 -26 -33 -38 -33 -31 -1 5 30 -19 42 -54 27 -26 -13 -34 -52 -9 -52 23 0
18 -24 -12 -53 l-28 -26 0 47 c0 46 -1 47 -29 44 -21 -3 -27 0 -24 10 11 28
-11 118 -53 214 -23 54 -46 119 -49 144 l-6 45 -13 -30z m159 -433 c0 -8 -48
-62 -56 -62 -7 0 6 42 18 58 11 13 38 17 38 4z"/>
<path d="M5000 8458 c0 -9 15 -44 33 -78 32 -62 32 -65 37 -235 5 -187 16
-225 64 -225 49 0 115 85 116 149 0 22 -3 23 -40 18 -22 -3 -40 -3 -40 0 0 14
23 44 41 54 17 9 25 7 44 -11 l24 -22 55 23 c64 26 91 51 102 94 l7 30 -21
-25 c-15 -17 -22 -20 -22 -10 0 8 -7 3 -16 -12 -15 -29 -34 -37 -34 -16 0 7
-7 2 -16 -10 -18 -26 -50 -28 -76 -5 -14 13 -23 14 -42 5 -27 -12 -66 -86 -66
-126 0 -26 2 -27 37 -20 l36 7 -20 -29 c-12 -17 -33 -36 -48 -44 -25 -13 -29
-13 -46 9 -16 20 -19 41 -19 151 0 145 -10 214 -42 277 -25 50 -48 74 -48 51z"/>
<path d="M6210 8444 c0 -9 15 -46 32 -82 32 -65 33 -68 34 -217 1 -156 6 -188
32 -217 21 -25 45 -22 82 8 35 30 54 63 65 113 l7 33 -41 -4 c-47 -4 -53 10
-21 42 25 25 38 25 65 0 l22 -20 66 30 c68 31 87 51 86 92 l0 23 -9 -22 c-10
-25 -26 -30 -33 -10 -4 7 -6 6 -6 -4 -1 -23 -27 -43 -36 -29 -5 8 -12 4 -22
-9 -16 -24 -58 -28 -67 -6 -16 43 -86 -12 -106 -83 -18 -65 -14 -71 34 -52 36
13 35 -8 -1 -42 -40 -36 -58 -40 -80 -16 -16 17 -18 39 -19 167 -1 156 -11
210 -50 279 -27 45 -34 51 -34 26z"/>
<path d="M5821 8375 c0 -5 6 -19 14 -29 8 -11 15 -15 15 -10 0 6 -7 19 -15 30
-8 10 -14 15 -14 9z"/>
<path d="M4251 8356 c-16 -20 -43 -109 -31 -101 6 4 10 12 10 19 0 7 6 21 14
31 12 17 16 17 31 5 15 -12 16 -11 13 20 -3 38 -19 48 -37 26z"/>
<path d="M4580 8361 c0 -5 5 -13 10 -16 6 -3 10 -2 10 4 0 5 -4 13 -10 16 -5
3 -10 2 -10 -4z"/>
<path d="M4400 8344 c0 -10 16 -80 34 -154 39 -156 41 -151 -53 -227 -53 -44
-54 -51 -4 -32 78 29 136 122 137 219 0 75 -21 125 -78 179 -30 30 -36 32 -36
15z m69 -101 c26 -40 37 -97 27 -137 -8 -32 -26 -34 -26 -3 0 12 -9 57 -19
100 -10 42 -15 77 -12 77 3 0 17 -17 30 -37z"/>
<path d="M4944 8352 c-15 -10 -37 -52 -26 -52 4 0 13 5 20 12 9 9 15 9 24 0
14 -14 10 -27 -47 -162 -58 -137 -38 -230 49 -230 62 0 102 87 76 165 -19 58
-86 60 -115 4 -18 -33 -14 -35 20 -13 36 23 85 3 85 -35 0 -42 -26 -71 -64
-71 -74 0 -88 78 -32 188 43 86 60 143 52 176 -6 26 -21 32 -42 18z"/>
<path d="M5662 8344 c-44 -22 -89 -76 -101 -120 -13 -46 -7 -56 25 -44 48 19
49 9 1 -33 -40 -34 -49 -50 -54 -84 -3 -23 -14 -50 -24 -59 -18 -16 -20 -15
-34 20 -22 51 -40 46 -54 -17 -16 -74 -42 -112 -103 -147 l-53 -32 40 7 c22 4
52 14 67 23 29 17 58 66 58 99 0 28 11 63 20 63 5 0 11 -13 15 -29 9 -44 32
-46 69 -7 17 18 41 39 54 45 12 6 22 21 22 32 0 18 -4 20 -32 14 l-33 -6 47
43 c50 47 68 75 68 109 0 20 -4 21 -41 16 -50 -7 -48 6 10 51 47 36 84 41 101
15 8 -15 10 -11 8 17 -4 42 -26 49 -76 24z"/>
<path d="M4734 8297 l7 -54 -33 -9 c-40 -11 -78 -78 -78 -136 0 -47 -37 -147
-57 -155 -24 -9 -43 25 -43 76 0 24 -3 42 -6 39 -12 -13 -5 -100 10 -123 18
-27 48 -33 63 -12 6 6 16 29 22 50 7 20 16 37 20 37 4 0 17 -13 29 -30 28 -38
61 -46 101 -26 89 46 97 229 15 348 -14 20 -33 39 -41 42 -13 5 -14 -2 -9 -47z
m82 -94 c21 -55 15 -144 -13 -181 -11 -15 -33 -33 -48 -41 -25 -12 -32 -12
-53 0 -29 16 -49 45 -40 55 4 3 17 -1 30 -10 33 -24 48 -20 55 15 3 17 16 37
29 46 34 22 33 84 -1 129 -14 18 -25 45 -25 61 l1 28 24 -30 c14 -16 32 -49
41 -72z m-38 -30 c33 -46 -9 -72 -45 -27 -26 33 -31 15 -8 -30 8 -15 15 -35
15 -42 0 -16 -36 -19 -45 -4 -3 6 -17 10 -31 10 -36 0 -27 57 17 101 24 24 75
20 97 -8z"/>
<path d="M6141 8331 c-16 -30 -14 -46 4 -31 17 14 35 5 35 -17 0 -9 -18 -57
-40 -109 -49 -115 -57 -158 -36 -207 18 -45 55 -65 94 -51 56 19 84 142 42
184 -27 27 -75 26 -94 -2 -26 -37 -20 -49 14 -30 27 15 32 16 57 2 35 -20 38
-37 13 -77 -24 -41 -66 -45 -98 -10 -31 33 -27 67 20 171 50 110 59 189 21
194 -14 2 -26 -4 -32 -17z"/>
<path d="M5945 8323 c16 -81 15 -91 -16 -98 -40 -9 -71 -57 -77 -119 -5 -64
-41 -166 -60 -174 -9 -3 -24 6 -39 24 -26 33 -29 28 -9 -21 12 -27 21 -35 41
-35 23 0 30 8 48 50 11 28 23 50 26 50 4 0 14 -13 23 -29 22 -39 74 -50 112
-25 62 40 84 166 47 264 -29 77 -107 168 -96 113z m65 -90 c54 -85 53 -178 -4
-238 -41 -43 -77 -46 -111 -9 -30 32 -23 51 11 30 41 -28 64 -16 64 32 0 10
10 22 23 27 34 15 36 83 4 121 -25 30 -41 84 -25 84 4 0 22 -21 38 -47z m-24
-66 c18 -16 25 -30 21 -40 -10 -26 -45 -20 -61 11 -22 39 -21 2 1 -43 22 -47
7 -66 -32 -41 -15 10 -33 15 -41 12 -32 -12 -7 78 29 106 30 24 51 22 83 -5z"/>
<path d="M6534 8305 c-7 -18 3 -35 20 -35 9 0 12 9 8 25 -5 28 -20 33 -28 10z"/>
<path d="M5340 8302 c0 -5 7 -15 15 -22 8 -7 15 -8 15 -2 0 5 -7 15 -15 22 -8
7 -15 8 -15 2z"/>
<path d="M4650 8282 c0 -4 -12 -15 -26 -23 -15 -9 -22 -19 -17 -22 11 -7 53
28 53 43 0 6 -2 10 -5 10 -3 0 -5 -3 -5 -8z"/>
<path d="M5873 8275 c-11 -8 -23 -11 -27 -8 -3 3 -6 1 -6 -5 0 -22 23 -24 43
-3 25 25 19 36 -10 16z"/>
<path d="M6493 8239 c-18 -12 -33 -23 -33 -25 0 -7 58 25 65 36 9 14 5 13 -32
-11z"/>
<path d="M5719 8218 c-10 -18 -8 -24 12 -39 32 -25 37 -24 45 8 5 19 2 30 -11
40 -25 18 -32 17 -46 -9z"/>
<path d="M3977 8128 c-7 -25 -3 -34 24 -48 16 -9 21 -7 31 15 10 22 9 27 -8
40 -27 20 -41 18 -47 -7z"/>
<path d="M5490 8125 c0 -8 5 -15 10 -15 6 0 10 7 10 15 0 8 -4 15 -10 15 -5 0
-10 -7 -10 -15z"/>
<path d="M5650 8104 c-13 -33 2 -54 32 -47 60 16 -47 -112 -114 -135 l-33 -12
44 5 c88 11 131 55 131 135 0 74 -40 109 -60 54z"/>
<path d="M5335 8079 c-5 -14 -1 -25 12 -34 25 -19 30 -18 44 7 10 18 8 24 -7
35 -26 19 -42 16 -49 -8z"/>
<path d="M6505 8043 c-5 -21 -1 -31 17 -44 22 -17 23 -17 35 4 17 31 16 35
-16 51 -28 15 -29 15 -36 -11z"/>
<path d="M4951 8042 c-11 -20 -6 -32 15 -32 18 0 25 27 9 40 -11 9 -16 7 -24
-8z"/>
<path d="M5741 8050 c-1 -8 -4 -26 -7 -40 -5 -22 -4 -23 6 -7 6 10 9 28 7 40
-2 12 -5 15 -6 7z"/>
<path d="M6165 8030 c-8 -14 3 -30 21 -30 8 0 14 9 14 20 0 21 -24 28 -35 10z"/>
<path d="M5296 8022 c-16 -26 -23 -92 -11 -109 12 -16 14 -16 39 0 20 14 26
26 26 55 0 39 -14 62 -36 62 -7 0 -15 -4 -18 -8z m38 -63 c-7 -11 -44 -12 -44
-1 0 4 5 13 12 20 13 13 42 -4 32 -19z"/>
<path d="M3750 8001 c-94 -30 -142 -61 -220 -140 -83 -84 -123 -160 -136 -262
-7 -49 -14 -61 -85 -139 -42 -47 -88 -98 -102 -115 l-26 -30 20 70 c23 82 32
260 18 348 -11 65 -45 172 -64 200 -12 17 -13 16 -19 -8 -4 -15 -25 -66 -46
-114 -94 -208 -97 -377 -11 -537 l28 -52 -54 -78 c-57 -83 -165 -273 -178
-313 -11 -36 -19 -15 -22 59 -6 174 -71 343 -184 476 l-26 31 -9 -101 c-15
-180 -10 -323 15 -387 24 -64 65 -127 116 -182 19 -21 35 -44 35 -51 0 -7 -14
-53 -31 -102 -17 -49 -43 -138 -59 -199 -15 -60 -30 -103 -33 -95 -2 8 -9 41
-15 72 -13 69 -78 219 -123 284 -32 47 -146 164 -159 164 -4 0 -4 -19 1 -42 4
-24 8 -79 9 -123 1 -170 57 -322 152 -411 29 -27 68 -60 86 -74 l32 -25 -14
-115 c-15 -118 -25 -212 -26 -265 -1 -27 -4 -23 -29 31 -68 146 -197 293 -310
353 -54 28 -63 31 -57 15 5 -10 21 -73 38 -139 52 -211 136 -331 279 -400 l72
-35 4 -102 c4 -109 20 -306 29 -348 4 -14 -15 7 -44 50 -84 128 -222 246 -337
289 -101 37 -97 39 -64 -26 16 -32 43 -93 60 -135 63 -158 175 -264 327 -308
l80 -23 22 -96 c12 -53 40 -149 61 -213 21 -65 39 -121 39 -124 0 -4 -24 15
-52 43 -109 102 -272 177 -415 189 l-78 6 36 -38 c20 -22 46 -55 59 -74 117
-175 258 -260 430 -260 l79 0 49 -98 c43 -86 129 -229 180 -302 16 -23 14 -22
-28 7 -103 70 -233 115 -360 126 -58 5 -185 -9 -209 -23 -11 -6 -9 -10 10 -20
13 -7 60 -42 103 -77 178 -144 331 -180 507 -118 23 9 46 12 49 8 4 -5 38 -44
75 -88 37 -44 113 -124 168 -178 54 -54 97 -100 95 -103 -3 -2 -32 14 -66 36
-75 50 -172 84 -283 99 -99 13 -168 8 -267 -21 l-72 -21 62 -35 c34 -18 76
-44 92 -57 52 -40 155 -83 227 -96 89 -16 175 -2 270 44 l71 34 32 -27 c17
-15 64 -52 105 -83 l73 -57 -561 0 -561 0 0 -502 c0 -276 -2 -499 -5 -496 -3
2 -28 130 -56 284 -28 153 -52 280 -54 282 -3 3 -462 -99 -590 -131 -88 -23
-90 -24 -65 -39 197 -121 336 -209 433 -272 l117 -76 -35 -48 c-130 -176 -283
-401 -319 -470 l-16 -30 63 15 c342 80 820 177 1102 222 105 17 208 34 230 38
l40 6 -70 20 c-38 10 -71 23 -73 28 -2 4 -9 6 -15 4 -7 -2 -136 27 -287 65
l-275 69 2640 -1 2640 0 -235 -59 c-129 -32 -251 -60 -271 -61 -21 -2 -35 -7
-32 -12 3 -4 -5 -5 -18 -1 -14 4 -20 4 -16 -1 5 -5 -29 -18 -75 -30 l-83 -20
175 -28 c320 -51 801 -145 1118 -219 78 -19 142 -32 142 -29 0 18 -218 344
-317 474 -24 31 -43 59 -43 62 0 8 168 119 389 256 101 63 180 115 175 117
-30 9 -384 89 -516 117 -107 23 -158 30 -161 22 -2 -6 -22 -108 -43 -226 l-39
-215 -3 442 -2 443 -541 2 -540 3 101 80 102 80 66 -32 c162 -79 319 -64 486
45 39 25 93 58 119 72 l48 27 -63 18 c-35 10 -109 20 -164 23 -154 7 -277 -25
-401 -104 -29 -19 -53 -30 -53 -26 0 4 53 61 118 128 65 66 140 148 166 182
27 34 50 62 51 62 1 0 22 -7 45 -15 174 -61 329 -25 511 121 47 38 95 74 105
80 17 10 14 13 -26 24 -144 40 -418 -16 -537 -110 -14 -11 -28 -19 -29 -17 -2
2 25 47 60 101 35 54 87 144 116 200 l52 103 99 5 c89 4 107 9 171 41 92 46
156 101 215 185 25 37 62 84 82 106 l36 39 -75 -7 c-146 -12 -298 -81 -418
-190 -34 -31 -53 -43 -48 -31 26 68 79 242 98 326 l23 97 61 17 c176 48 275
141 354 332 17 43 43 99 56 126 13 26 22 47 19 47 -20 0 -145 -56 -192 -86
-73 -47 -176 -150 -231 -234 l-44 -65 7 60 c3 33 8 74 10 90 2 17 7 94 11 173
l7 143 66 32 c141 68 238 204 281 393 12 54 29 112 36 131 16 38 15 39 -29 17
-120 -61 -251 -202 -319 -343 -18 -38 -36 -70 -40 -70 -5 -1 -8 27 -8 62 -1
34 -5 96 -10 137 -5 41 -12 104 -15 140 l-6 65 55 37 c99 68 171 184 195 313
12 63 31 307 25 314 -9 9 -153 -149 -181 -199 -43 -75 -91 -197 -107 -272
l-13 -63 -12 45 c-7 25 -23 87 -37 139 -14 51 -36 124 -50 162 l-25 70 51 57
c68 76 106 152 126 256 16 82 16 93 -2 242 l-19 156 -47 -64 c-92 -123 -144
-272 -155 -437 l-6 -93 -54 107 c-29 60 -85 155 -124 213 l-70 105 30 62 c48
96 65 176 57 270 -7 93 -22 146 -71 254 -19 43 -38 93 -41 110 -4 17 -9 31
-13 31 -11 0 -58 -131 -71 -198 -17 -84 -8 -300 15 -365 9 -27 15 -51 13 -53
-4 -3 -143 145 -180 191 -9 12 -22 50 -27 83 -28 175 -181 344 -360 396 -53
15 -181 22 -181 10 0 -4 28 -61 63 -127 51 -99 76 -135 137 -197 83 -83 134
-113 241 -138 71 -17 72 -18 158 -110 47 -52 89 -100 94 -107 4 -8 -18 2 -50
21 -62 37 -137 68 -222 90 -60 15 -233 18 -266 4 -11 -5 -15 -9 -9 -9 6 -1 55
-42 110 -92 126 -115 228 -169 333 -177 61 -4 163 8 205 24 14 5 96 -113 170
-244 74 -130 76 -146 11 -75 -101 112 -269 207 -404 228 -35 6 -42 5 -35 -7 5
-7 21 -31 35 -53 14 -22 45 -72 68 -111 52 -90 152 -187 224 -219 56 -24 148
-45 202 -45 31 0 33 -3 58 -72 32 -89 74 -239 82 -293 6 -40 6 -40 -31 25 -21
36 -77 104 -124 152 -73 74 -100 93 -183 134 -54 26 -100 44 -103 41 -3 -3 1
-16 10 -29 8 -12 30 -67 50 -121 41 -116 69 -166 132 -235 56 -63 111 -97 207
-127 61 -20 72 -27 79 -50 9 -37 38 -327 37 -379 l0 -41 -15 55 c-19 72 -72
184 -123 258 -42 62 -147 164 -202 196 l-32 19 7 -24 c4 -13 16 -78 27 -143
39 -236 124 -366 292 -447 l47 -23 0 -105 c0 -58 -5 -157 -12 -220 l-11 -115
-22 89 c-40 159 -100 278 -193 377 -42 45 -93 85 -78 60 3 -5 7 -74 10 -154 7
-250 66 -382 225 -499 l34 -25 -22 -90 c-29 -118 -89 -312 -99 -318 -4 -2 -6
38 -4 89 6 163 -31 312 -109 441 -39 64 -30 78 -74 -112 -51 -223 -26 -370 87
-521 l40 -52 -50 -98 c-27 -54 -66 -125 -87 -158 -34 -55 -36 -57 -30 -25 20
110 25 155 25 244 0 96 -17 193 -46 261 -11 27 -13 28 -19 10 -4 -11 -34 -75
-67 -142 -97 -198 -109 -333 -43 -498 14 -34 25 -65 25 -69 0 -18 -198 -241
-206 -233 -3 2 0 17 6 33 23 59 50 211 50 281 0 62 -23 209 -35 221 -2 2 -13
-16 -25 -40 -13 -23 -38 -65 -57 -91 -110 -156 -148 -323 -107 -484 13 -53 14
-66 3 -80 -29 -34 -242 -193 -260 -193 -5 0 9 28 31 63 79 127 136 320 126
427 -2 25 -5 54 -5 65 -1 18 -3 17 -18 -5 -9 -14 -53 -63 -98 -110 -45 -47
-94 -103 -108 -125 -41 -63 -77 -169 -81 -243 l-5 -67 -1438 0 -1438 0 -6 75
c-13 142 -63 235 -216 394 l-93 97 0 -83 c0 -142 43 -287 125 -423 19 -32 35
-59 35 -62 0 -12 -174 113 -256 185 l-21 18 19 75 c36 136 8 295 -74 420 -23
35 -58 93 -79 128 l-38 63 -11 -43 c-20 -71 -28 -160 -22 -234 4 -60 35 -204
56 -260 9 -23 -68 57 -155 162 l-60 72 20 38 c51 101 65 242 36 358 -8 33 -39
110 -69 170 -30 61 -57 120 -61 133 -10 35 -21 19 -46 -70 -29 -105 -32 -296
-5 -397 9 -35 15 -66 13 -68 -5 -5 -74 111 -132 222 l-45 86 33 42 c122 151
152 323 93 542 -14 54 -26 112 -26 128 0 16 -4 26 -10 22 -20 -12 -90 -151
-110 -215 -27 -91 -44 -232 -36 -309 3 -35 4 -62 2 -60 -13 13 -52 133 -87
263 l-39 151 28 20 c103 74 171 168 207 285 14 46 39 365 29 378 -6 9 -118
-114 -153 -168 -50 -78 -100 -203 -116 -295 -11 -65 -13 -68 -19 -35 -10 53
-26 257 -26 332 l0 67 60 32 c168 89 250 221 285 455 8 56 19 114 25 129 l10
26 -42 -23 c-110 -60 -255 -250 -300 -392 -41 -128 -42 -128 -17 139 18 205
14 195 84 215 172 48 278 158 356 370 16 45 36 95 45 112 9 16 13 32 11 35
-10 9 -158 -67 -216 -111 -68 -53 -151 -148 -193 -224 -17 -29 -32 -51 -34
-50 -6 7 26 132 68 266 l41 132 36 0 c56 0 164 26 212 50 95 48 171 130 239
255 18 33 45 77 62 98 34 44 27 46 -67 22 -142 -37 -284 -130 -383 -250 -30
-36 -32 -37 -22 -11 23 62 194 345 217 359 4 3 33 -1 63 -9 107 -28 220 -15
321 37 53 26 69 38 166 126 41 37 86 75 100 84 l24 16 -32 7 c-55 11 -192 6
-254 -8 -83 -20 -194 -67 -239 -101 -20 -15 -39 -26 -41 -23 -3 2 40 52 95
110 98 104 100 105 162 118 161 31 280 139 389 353 l60 117 -68 -1 c-37 0 -93
-8 -123 -18z"/>
<path d="M6794 7979 c-76 -80 -211 -163 -315 -193 -158 -46 -309 -39 -518 24
-241 72 -397 76 -592 14 -139 -44 -307 -140 -374 -214 l-19 -21 -26 49 c-27
53 -64 102 -75 102 -5 0 -1 -8 8 -18 26 -29 57 -130 64 -209 l6 -73 36 62 c74
126 201 225 355 273 185 59 386 52 666 -24 164 -45 370 -56 485 -26 139 36
252 121 309 233 15 29 25 52 23 52 -2 0 -16 -14 -33 -31z"/>
<path d="M4131 7823 c-11 -24 -12 -24 -36 -9 -24 16 -26 16 -37 -9 -10 -22 -8
-28 8 -40 21 -16 34 -19 34 -7 1 25 17 33 44 21 23 -11 29 -10 37 2 14 23 11
36 -15 52 -22 15 -24 14 -35 -10z"/>
<path d="M5365 7201 c-3 -5 -2 -12 3 -15 5 -3 9 1 9 9 0 17 -3 19 -12 6z"/>
<path d="M5295 7193 c3 -3 -1 -13 -8 -21 -8 -11 -8 -14 0 -9 6 4 14 1 17 -5 2
-7 4 -3 2 9 -1 12 -5 25 -9 28 -4 3 -5 2 -2 -2z"/>
<path d="M5219 7168 c-5 -18 -6 -38 -1 -34 7 8 12 36 6 36 -2 0 -4 -1 -5 -2z"/>
<path d="M5526 7048 c3 -5 10 -6 15 -3 13 9 11 12 -6 12 -8 0 -12 -4 -9 -9z"/>
<path d="M5609 7013 c-13 -16 -12 -17 4 -4 16 13 21 21 13 21 -2 0 -10 -8 -17
-17z"/>
<path d="M5365 6781 c-3 -5 -2 -12 3 -15 5 -3 9 1 9 9 0 17 -3 19 -12 6z"/>
<path d="M5332 6375 c-67 -80 -125 -123 -337 -249 -71 -43 -157 -97 -190 -121
-65 -46 -164 -147 -205 -209 -28 -42 -21 -42 -185 -11 -44 8 -109 14 -145 15
l-65 0 -447 -449 c-247 -247 -448 -453 -448 -458 0 -5 75 -15 168 -22 700 -53
1229 -244 1677 -606 l50 -40 -31 40 c-18 22 -76 83 -130 135 -369 358 -786
575 -1216 635 -27 3 -48 9 -48 13 0 4 136 143 303 309 l302 302 62 -3 c35 -1
65 -4 67 -7 2 -2 -3 -35 -11 -74 -29 -138 -4 -291 69 -413 64 -107 233 -257
365 -326 51 -26 51 -19 -3 37 -160 164 -228 311 -229 487 0 87 3 101 33 164
44 94 144 191 286 276 185 112 256 159 306 206 l49 45 69 -58 c38 -32 118 -87
178 -122 187 -109 236 -144 305 -213 109 -108 143 -204 127 -351 -15 -147 -75
-267 -198 -399 -56 -61 -68 -79 -50 -73 140 43 347 228 415 369 18 39 39 91
44 116 14 60 14 193 0 264 -7 31 -9 59 -5 63 3 4 32 8 64 10 l57 4 310 -304
c206 -202 305 -307 295 -310 -8 -2 -70 -14 -136 -26 -414 -72 -823 -312 -1217
-715 -63 -64 -95 -106 -82 -106 3 0 33 23 67 51 101 81 304 213 428 278 403
210 847 321 1378 344 l53 2 -458 463 -458 464 -70 -7 c-38 -4 -112 -13 -162
-21 -123 -19 -117 -20 -146 25 -76 115 -209 221 -452 361 -178 103 -269 178
-311 256 -10 19 -21 34 -24 34 -3 0 -34 -34 -68 -75z"/>
<path d="M3843 4452 c-62 -81 -79 -110 -70 -118 7 -7 86 -19 177 -29 399 -41
732 -128 1080 -282 74 -33 146 -63 160 -67 40 -11 -35 52 -170 143 -250 168
-466 276 -734 368 -96 33 -322 93 -348 93 -7 0 -50 -48 -95 -108z"/>
<path d="M6745 4534 c-181 -39 -511 -166 -695 -267 -131 -71 -273 -162 -363
-231 -137 -106 -129 -112 47 -30 346 161 700 257 1108 299 81 8 159 20 173 25
l26 10 -79 102 c-91 117 -93 118 -217 92z"/>
</g>
</svg>
